<?xml version="1.0" standalone="no"?>
<!DOCTYPE svg PUBLIC "-//W3C//DTD SVG 20010904//EN"
 "http://www.w3.org/TR/2001/REC-SVG-20010904/DTD/svg10.dtd">
<svg version="1.0" xmlns="http://www.w3.org/2000/svg"
 width="1280.000000pt" height="650.000000pt" viewBox="0 0 1280.000000 650.000000"
 preserveAspectRatio="xMidYMid meet">
<g transform="translate(0.000000,650.000000) scale(0.100000,-0.100000)"
fill="#000000" stroke="none">
<path d="M4255 6488 c-165 -40 -214 -55 -321 -99 -204 -84 -374 -198 -511
-342 -267 -282 -340 -621 -205 -954 21 -51 21 -53 3 -53 -10 0 -35 7 -56 15
-65 28 -275 85 -394 107 -100 19 -151 22 -366 23 -222 0 -263 -3 -363 -23
-487 -99 -864 -358 -1161 -799 -91 -136 -124 -207 -167 -364 -28 -99 -26 -329
4 -432 62 -215 196 -409 394 -569 126 -102 216 -159 374 -235 74 -35 134 -68
134 -74 0 -5 -19 -17 -42 -26 -84 -33 -275 -133 -385 -201 -533 -332 -971
-818 -1121 -1243 -41 -115 -76 -298 -69 -357 20 -165 84 -325 174 -436 50 -60
151 -137 263 -199 146 -81 399 -162 579 -187 302 -41 438 -48 573 -30 40 5
123 14 183 20 559 56 1205 275 1618 547 100 66 248 184 301 242 17 17 35 31
40 31 6 0 24 -27 40 -60 33 -69 134 -183 215 -243 329 -243 937 -324 1441
-191 382 100 650 296 813 594 9 17 21 30 25 28 5 -2 36 -35 70 -74 307 -358
1095 -680 1822 -745 163 -14 440 -7 561 15 119 22 285 70 404 116 413 162 672
471 725 867 15 111 8 318 -14 418 -10 42 -12 73 -7 78 6 6 100 -1 243 -17 385
-44 570 -56 846 -56 478 0 801 58 1087 195 249 119 491 338 587 530 83 165
154 404 177 600 7 55 17 119 22 142 12 54 12 175 0 244 -6 30 -15 95 -21 144
-54 422 -271 796 -561 968 -118 69 -347 149 -526 183 -136 25 -432 30 -572 10
-157 -23 -321 -67 -471 -126 -126 -50 -150 -57 -150 -42 0 4 12 52 26 107 24
90 27 118 27 275 1 152 -3 191 -26 301 -83 393 -297 752 -554 930 -116 80
-370 183 -614 248 -562 150 -1135 166 -1749 50 -262 -50 -438 -107 -650 -213
-422 -211 -698 -478 -815 -789 -10 -26 -21 -50 -26 -52 -4 -3 -36 39 -71 92
-299 455 -832 884 -1293 1041 -111 38 -329 82 -398 81 -29 -1 -70 -5 -92 -11z"/>
</g>
</svg>
